<?xml version="1.0" encoding="utf-8"?>
<!-- Generator: Adobe Illustrator 19.0.0, SVG Export Plug-In . SVG Version: 6.00 Build 0)  -->
<svg version="1.1" id="Layer_1" xmlns="http://www.w3.org/2000/svg" xmlns:xlink="http://www.w3.org/1999/xlink" x="0px" y="0px"
	 viewBox="0 0 96 96" style="enable-background:new 0 0 96 96;" xml:space="preserve">
<style type="text/css">
	.st0{fill:colorBlack;}
	.st1{fill:colorWhite;}
	.st2{fill:colorGray;}
	.st3{fill:colorMain;}
	.st4{fill:colorMainLight;}
	.st5{fill:colorMainDark;}
	.st6{fill:colorBlack;}
	.st7{fill:colorWhite;}
	.st8{fill:colorGray;}
</style>
<g id="XMLID_1_">
	<circle id="XMLID_3_" class="st0" cx="48" cy="48" r="32.5"/>
	<path id="XMLID_4_" class="st1" d="M78.9,58.1c0,0,0-0.1-0.1-0.1c0-0.1-0.1-0.2-0.1-0.3c0-0.1-0.1-0.2-0.1-0.3
		c0-0.1-0.1-0.2-0.1-0.3c0-0.1-0.1-0.2-0.1-0.3c0-0.1-0.1-0.2-0.1-0.3c0-0.1-0.1-0.2-0.1-0.3c0-0.1-0.1-0.2-0.1-0.3
		c0-0.1-0.1-0.2-0.1-0.3c0-0.1-0.1-0.2-0.1-0.3c0-0.1-0.1-0.2-0.1-0.3c0-0.1-0.1-0.2-0.1-0.3c0-0.1-0.1-0.2-0.1-0.3
		c0-0.1-0.1-0.2-0.1-0.3c0-0.1-0.1-0.2-0.1-0.3c0-0.1-0.1-0.2-0.1-0.3c0-0.1-0.1-0.2-0.1-0.3c0-0.1-0.1-0.2-0.1-0.3
		c0-0.1-0.1-0.2-0.1-0.3c0-0.1-0.1-0.2-0.1-0.3c0-0.1-0.1-0.2-0.1-0.3c0-0.1-0.1-0.2-0.1-0.3c0-0.1-0.1-0.2-0.1-0.3
		c0-0.1-0.1-0.2-0.1-0.3c0-0.1-0.1-0.2-0.1-0.3c0-0.1-0.1-0.2-0.1-0.3c0-0.1-0.1-0.2-0.1-0.3c0-0.1-0.1-0.2-0.1-0.3
		c0-0.1-0.1-0.2-0.1-0.3c0-0.1-0.1-0.2-0.1-0.3c0-0.1-0.1-0.2-0.1-0.3c0-0.1-0.1-0.2-0.1-0.3c0-0.1-0.1-0.2-0.1-0.3
		c0-0.1-0.1-0.2-0.1-0.3c0-0.1-0.1-0.2-0.1-0.3c0-0.1-0.1-0.2-0.1-0.3c0-0.1-0.1-0.2-0.1-0.3c0-0.1-0.1-0.2-0.1-0.3
		c0-0.1-0.1-0.2-0.1-0.3c0-0.1-0.1-0.2-0.1-0.3c0-0.1-0.1-0.2-0.1-0.3c0-0.1-0.1-0.2-0.1-0.3c0-0.1-0.1-0.2-0.1-0.3
		c0-0.1-0.1-0.2-0.1-0.3c0-0.1-0.1-0.2-0.1-0.3c0-0.1-0.1-0.2-0.1-0.3c0-0.1-0.1-0.2-0.1-0.3c0-0.1-0.1-0.2-0.1-0.3
		c0-0.1-0.1-0.2-0.1-0.3c0-0.1-0.1-0.2-0.1-0.3c0-0.1-0.1-0.2-0.1-0.3c0-0.1-0.1-0.2-0.1-0.3c0-0.1-0.1-0.2-0.1-0.3
		c0-0.1-0.1-0.2-0.1-0.3c0-0.1-0.1-0.2-0.1-0.3c0-0.1-0.1-0.2-0.1-0.3c0-0.1-0.1-0.2-0.1-0.3c0-0.1-0.1-0.2-0.1-0.3
		c0-0.1-0.1-0.2-0.1-0.3c0-0.1-0.1-0.2-0.1-0.3c0-0.1-0.1-0.2-0.1-0.3c0-0.1-0.1-0.2-0.1-0.3c0-0.1-0.1-0.2-0.1-0.3
		c0-0.1-0.1-0.2-0.1-0.3c0-0.1-0.1-0.2-0.1-0.3c0-0.1-0.1-0.2-0.1-0.3c0-0.1-0.1-0.2-0.1-0.3c0-0.1-0.1-0.2-0.1-0.3
		c0-0.1-0.1-0.2-0.1-0.3c0-0.1-0.1-0.2-0.1-0.3c0-0.1-0.1-0.2-0.1-0.3c0-0.1-0.1-0.2-0.1-0.3c0-0.1-0.1-0.2-0.1-0.3
		c0-0.1-0.1-0.2-0.1-0.3c0-0.1-0.1-0.2-0.1-0.3c0-0.1-0.1-0.2-0.1-0.3c0-0.1-0.1-0.2-0.1-0.3c0-0.1-0.1-0.2-0.1-0.3
		c0-0.1-0.1-0.2-0.1-0.3c0-0.1-0.1-0.2-0.1-0.3c0-0.1-0.1-0.2-0.1-0.3c0-0.1-0.1-0.2-0.1-0.3c0-0.1-0.1-0.2-0.1-0.3
		c0-0.1-0.1-0.2-0.1-0.3c0-0.1-0.1-0.2-0.1-0.3c0-0.1-0.1-0.2-0.1-0.3c0-0.1-0.1-0.2-0.1-0.3c0-0.1-0.1-0.2-0.1-0.3
		c0-0.1-0.1-0.2-0.1-0.3c0-0.1-0.1-0.2-0.1-0.3c0-0.1-0.1-0.2-0.1-0.3c0-0.1-0.1-0.2-0.1-0.3c0-0.1-0.1-0.2-0.1-0.3
		c0-0.1-0.1-0.2-0.1-0.3c0-0.1-0.1-0.2-0.1-0.3c-0.1-0.2-0.2-0.4-0.3-0.6c-0.2-0.2-0.6-0.4-0.9-0.4c-0.2,0-0.4,0-0.6,0
		c-0.2,0-0.4,0-0.5,0l0,0c-3.8,0.4-9.4,2.7-13,6c-0.2-0.1-0.5-0.3-0.7-0.4l-0.1-0.1c-0.1,0-0.1-0.1-0.2-0.1c-0.1,0-0.2-0.1-0.3-0.1
		l0,0c-0.6-0.2-1.2-0.3-1.8-0.3c-0.2,0-0.3,0-0.4,0c-0.3,0-0.5,0-0.8,0h0c-1.1,0.1-2,0.5-2.9,0.9c-0.8-0.7-1.6-1.4-2.6-2
		c-3.8-2.6-8.3-4.1-11.6-4.1c-0.1,0-0.1,0-0.2,0c-0.1,0-0.1,0-0.2,0l0,0c-0.2,0.1-0.4,0.2-0.5,0.3C29.1,28.3,29,28.6,29,29
		c0.1,3,1.5,6.6,2.7,9.8c0.4,1.1,0.8,2.1,1.1,3.1V49v1.5c0,0.2,0,0.5,0,0.7c0,0.1,0,0.1,0,0.2c0,0.2,0,0.3,0.1,0.5
		c0,0.1,0,0.1,0,0.2c0,0.2,0.1,0.4,0.1,0.6l0,0.1c0.1,0.2,0.1,0.4,0.2,0.6c0,0.1,0.1,0.2,0.1,0.2c0,0.1,0.1,0.3,0.2,0.4
		c0,0,0,0.1,0.1,0.1c0,0.1,0,0.1,0.1,0.2c0,0,0,0.1,0.1,0.1c0,0.1,0,0.1,0.1,0.2c0,0,0,0.1,0.1,0.1c0,0.1,0,0.1,0.1,0.2
		c0,0,0,0.1,0.1,0.1c0,0.1,0,0.1,0.1,0.2c0,0,0,0.1,0.1,0.1c0,0.1,0,0.1,0.1,0.2c0,0,0,0.1,0.1,0.1c0,0.1,0,0.1,0.1,0.2
		c0,0,0,0.1,0.1,0.1c0,0.1,0,0.1,0.1,0.2c0,0,0,0.1,0.1,0.1c0,0.1,0,0.1,0.1,0.2c0,0,0,0.1,0.1,0.1c0,0.1,0,0.1,0.1,0.2
		c0,0,0,0.1,0.1,0.1c0,0.1,0,0.1,0.1,0.2c0,0,0,0.1,0.1,0.1c0,0.1,0,0.1,0.1,0.2c0,0.1,0,0.1,0.1,0.2c0,0.1,0,0.1,0.1,0.2
		c0,0,0,0.1,0.1,0.1c0,0.1,0,0.1,0.1,0.2c0,0,0,0.1,0.1,0.1c0,0.1,0,0.1,0.1,0.2c0,0,0,0.1,0.1,0.1c0,0.1,0,0.1,0.1,0.2
		c0,0,0,0.1,0.1,0.1c0,0.1,0,0.1,0.1,0.2c0,0,0,0.1,0.1,0.1c0,0.1,0,0.1,0.1,0.2c0,0,0,0.1,0.1,0.1c0,0.1,0,0.1,0.1,0.2
		c0,0,0,0.1,0.1,0.1c0,0.1,0,0.1,0.1,0.2c0,0,0,0.1,0.1,0.1c0,0.1,0,0.1,0.1,0.2c0,0,0,0.1,0.1,0.1c0,0.1,0,0.1,0.1,0.2
		c0,0,0,0.1,0.1,0.1c0,0.1,0,0.1,0.1,0.2c0,0,0,0.1,0.1,0.1c0,0.1,0,0.1,0.1,0.2c0,0,0,0.1,0.1,0.1c0,0.1,0,0.1,0.1,0.2
		c0,0,0,0.1,0.1,0.1c0,0.1,0,0.1,0.1,0.2c0,0,0,0.1,0.1,0.1c0,0.1,0,0.1,0.1,0.2c0,0,0,0.1,0.1,0.1c0,0.1,0,0.1,0.1,0.2
		c0,0,0,0.1,0.1,0.1c0,0.1,0,0.1,0.1,0.2c0,0,0,0.1,0.1,0.1c0,0.1,0,0.1,0.1,0.2c0,0,0,0.1,0.1,0.1c0,0.1,0,0.1,0.1,0.2
		c0,0,0,0.1,0.1,0.1c0,0.1,0,0.1,0.1,0.2c0,0,0,0.1,0.1,0.1c0,0.1,0,0.1,0.1,0.2c0,0,0,0.1,0.1,0.1c0,0.1,0,0.1,0.1,0.2
		c0,0,0,0.1,0.1,0.1c0,0.1,0,0.1,0.1,0.2c0,0,0,0.1,0.1,0.1c0,0.1,0,0.1,0.1,0.2c0,0,0,0.1,0.1,0.1c0,0.1,0,0.1,0.1,0.2
		c0,0.1,0,0.1,0.1,0.2c0,0.1,0,0.1,0.1,0.2c0,0.1,0,0.1,0.1,0.1c0,0.1,0,0.1,0.1,0.2c0,0,0,0.1,0.1,0.1c0,0.1,0,0.1,0.1,0.2
		c0,0,0,0.1,0.1,0.1c0,0.1,0,0.1,0.1,0.2c0,0,0,0.1,0.1,0.1c0,0.1,0,0.1,0.1,0.2c0,0,0,0.1,0.1,0.1c0,0.1,0,0.1,0.1,0.2
		c0,0,0,0.1,0.1,0.1c0,0.1,0,0.1,0.1,0.2c0,0,0,0.1,0.1,0.1c0,0.1,0,0.1,0.1,0.2c0,0,0,0.1,0.1,0.1c0,0.1,0,0.1,0.1,0.2
		c0,0,0,0.1,0.1,0.1c0,0.1,0,0.1,0.1,0.2c0,0,0,0.1,0.1,0.1c0,0.1,0,0.1,0.1,0.2c0,0,0,0.1,0.1,0.1c0,0.1,0,0.1,0.1,0.2
		c0,0,0,0.1,0.1,0.1c0,0.1,0,0.1,0.1,0.2c0,0,0,0.1,0.1,0.1c0,0.1,0,0.1,0.1,0.2c0,0,0,0.1,0.1,0.1c0,0.1,0,0.1,0.1,0.2
		c0,0,0,0.1,0.1,0.1c0,0.1,0,0.1,0.1,0.2c0,0,0,0.1,0.1,0.1c0,0.1,0,0.1,0.1,0.2c0,0,0,0.1,0.1,0.1c0,0.1,0,0.1,0.1,0.2
		c0,0,0,0.1,0.1,0.1c0,0.1,0,0.1,0.1,0.2c0,0,0,0.1,0.1,0.1c0,0.1,0,0.1,0.1,0.2c0,0,0,0.1,0.1,0.1c0,0.1,0,0.1,0.1,0.2
		c0,0,0,0.1,0.1,0.1c0,0.1,0,0.1,0.1,0.2c0,0,0,0.1,0.1,0.1c0,0.1,0,0.1,0.1,0.2c0,0,0,0.1,0.1,0.1c0,0.1,0,0.1,0.1,0.2
		c0,0,0,0.1,0.1,0.1c0,0.1,0,0.1,0.1,0.2c0,0.1,0,0.1,0.1,0.2c0,0.1,0,0.1,0.1,0.2c0,0,0,0.1,0.1,0.1c0,0.1,0,0.1,0.1,0.2
		c0,0,0,0.1,0.1,0.1c0,0.1,0,0.1,0.1,0.2c0,0,0,0.1,0.1,0.1c0,0.1,0,0.1,0.1,0.2c0,0,0,0.1,0.1,0.1c0,0.1,0,0.1,0.1,0.2
		c0,0,0,0.1,0.1,0.1c0,0.1,0,0.1,0.1,0.2c0,0,0,0.1,0.1,0.1c0,0.1,0,0.1,0.1,0.2c0,0,0,0.1,0.1,0.1c0,0.1,0,0.1,0.1,0.2
		c0,0,0,0.1,0.1,0.1c0,0.1,0,0.1,0.1,0.2c0,0,0,0.1,0.1,0.1c0,0.1,0,0.1,0.1,0.2c0,0,0,0.1,0.1,0.1c0,0.1,0,0.1,0.1,0.2
		c0,0,0,0.1,0.1,0.1c0,0.1,0,0.1,0.1,0.2c0,0,0,0.1,0.1,0.1c0,0.1,0,0.1,0.1,0.2c0,0,0,0.1,0.1,0.1c0,0.1,0,0.1,0.1,0.2
		c0,0,0,0.1,0.1,0.1c0,0.1,0,0.1,0.1,0.2c0,0,0,0.1,0.1,0.1c0,0.1,0,0.1,0.1,0.2c0,0,0,0.1,0.1,0.1c0,0.1,0,0.1,0.1,0.2
		c0,0,0,0.1,0.1,0.1c0,0.1,0,0.1,0.1,0.2c0,0,0,0.1,0.1,0.1c0,0.1,0,0.1,0.1,0.2c0,0,0,0.1,0.1,0.1c0,0.1,0,0.1,0.1,0.2
		c0,0,0,0.1,0.1,0.1c0,0.1,0,0.1,0.1,0.2c0,0,0,0.1,0.1,0.1c0,0.1,0,0.1,0.1,0.2c0,0,0,0.1,0.1,0.1l0,0.1c1.3,0.2,2.6,0.2,3.9,0.2
		C62.4,80.5,74.6,71.1,78.9,58.1z"/>
	<path id="XMLID_5_" class="st2" d="M64.5,50.6c-0.7-1.8-1.3-4.3-1.3-8.7H48H32.8c0,4.4-0.6,6.9-1.3,8.7c-0.7,1.8,1.4,3.4,2.9,4.5
		c5.8,4.5,6.3,9.2,13.6,9.2s7.8-4.7,13.6-9.2C63.1,53.9,65.2,52.4,64.5,50.6z"/>
	<path id="XMLID_6_" class="st3" d="M64.5,50.6c-0.7-1.8-1.3-4.3-1.3-8.7h-1.5c0,4.4,0.6,6.9,1.3,8.7c0.7,1.8-1.4,3.4-2.9,4.5
		c-5.6,4.3-6.3,8.8-12.8,9.1c0.2,0,0.5,0,0.8,0c7.3,0,7.8-4.7,13.6-9.2C63.1,53.9,65.2,52.4,64.5,50.6z"/>
	<circle id="XMLID_7_" class="st4" cx="53.5" cy="48.1" r="2.5"/>
	<circle id="XMLID_8_" class="st5" cx="53.5" cy="48.1" r="1.5"/>
	<circle id="XMLID_9_" class="st4" cx="42.3" cy="48.1" r="2.5"/>
	<circle id="XMLID_10_" class="st5" cx="42.3" cy="48.1" r="1.5"/>
	<path id="XMLID_11_" class="st6" d="M66.7,28.1c-0.2-0.2-0.6-0.4-0.9-0.4c-3.8,0-10.1,2.4-14.1,6.1c-1-0.6-2.3-1-3.6-1
		s-2.6,0.4-3.6,1c-4-3.6-10.4-6.1-14.1-6.1c-0.3,0-0.7,0.1-0.9,0.4C29.1,28.3,29,28.6,29,29c0.1,3,1.5,6.6,2.7,9.8
		c0.4,1.1,0.8,3.6,1.1,4.6c13.5-0.3,12.7,12.1,12.7,16h5.1c0-4-0.8-16.3,12.7-16v-1.5c0.3-1,0.7-2,1.1-3.1C65.6,35.6,67,32,67,29
		C67,28.6,66.9,28.3,66.7,28.1z"/>
	<path id="XMLID_12_" class="st7" d="M51.1,34.2c0.2-0.2,0.4-0.3,0.6-0.5c-1-0.6-2.4-1-3.7-1c-0.3,0-0.5,0-0.8,0
		C48.3,32.9,50.3,33.7,51.1,34.2z"/>
	<path id="XMLID_13_" class="st7" d="M66.7,28.1c-0.2-0.2-0.6-0.4-0.9-0.4c-0.4,0-0.7,0-1.1,0.1c0.2,0.1,0.4,0.2,0.5,0.3
		c0.2,0.2,0.4,0.6,0.4,0.9c-0.1,3-1.4,6.6-2.7,9.8c-0.4,1.1-0.8,2.1-1.1,3.1v1.5C48.3,43.1,49,55.4,49,59.4h1.5
		c0-4-0.8-16.3,12.7-16v-1.5c0.3-1,0.7-2,1.1-3.1C65.6,35.6,67,32,67,29C67,28.6,66.9,28.3,66.7,28.1z"/>
	<path id="XMLID_14_" class="st7" d="M43.3,34.2c0.3-0.2,0.7-0.3,1-0.5c-4.1-3.7-10.4-6.1-14.1-6.1c-0.1,0-0.3,0-0.4,0.1
		C33.7,28.2,39.7,30.9,43.3,34.2z"/>
	<path id="XMLID_15_" class="st5" d="M48,63.2c-1.3-1.3-2.5-2.4-2.5-3.8c0-1.4,1.1-2.5,2.5-2.5c1.4,0,2.5,1.1,2.5,2.5
		C50.5,60.8,49.3,62,48,63.2z"/>
	<path id="XMLID_16_" class="st8" d="M64.5,30.2c-1.3,0-7.6,1.3-8.9,3.8c1.3,1.3,6.3,5.1,6.3,5.1C63.2,36.6,64.5,31.5,64.5,30.2z"/>
	<path id="XMLID_17_" class="st8" d="M31.5,30.2c1.3,0,7.6,1.3,8.9,3.8c-1.3,1.3-6.3,5.1-6.3,5.1C32.8,36.6,31.5,31.5,31.5,30.2z"/>
</g>
</svg>
