
Open SVG

Paste markup
Demo
Contribute
About
Powered by the incredible SVGO


1.43k → 1.07k 74.62%
<svg id="Layer_1" xmlns="http://www.w3.org/2000/svg" viewBox="0 0 96 96"><style>.st4{fill:#d09683}.st5{fill:#ddbc95}.st7{fill:#cdcdc0}.st8{fill:#626d71}</style><g id="XMLID_1_"><circle id="XMLID_3_" cx="48" cy="48" r="32.5" fill="#d09683"/><path fill="#ddbc95" id="XMLID_4_" d="M78.9 58.1s0-.1-.1-.1c0-.1-.1-.2-.1-.3 0-.1-.1-.2-.1-.3 0-.1-.1-.2-.1-.3 0-.1-.1-.2-.1-.3 0-.1-.1-.2-.1-.3 0-.1-.1-.2-.1-.3 0-.1-.1-.2-.1-.3 0-.1-.1-.2-.1-.3 0-.1-.1-.2-.1-.3 0-.1-.1-.2-.1-.3 0-.1-.1-.2-.1-.3 0-.1-.1-.2-.1-.3 0-.1-.1-.2-.1-.3 0-.1-.1-.2-.1-.3 0-.1-.1-.2-.1-.3 0-.1-.1-.2-.1-.3 0-.1-.1-.2-.1-.3 0-.1-.1-.2-.1-.3 0-.1-.1-.2-.1-.3 0-.1-.1-.2-.1-.3 0-.1-.1-.2-.1-.3 0-.1-.1-.2-.1-.3 0-.1-.1-.2-.1-.3 0-.1-.1-.2-.1-.3 0-.1-.1-.2-.1-.3 0-.1-.1-.2-.1-.3 0-.1-.1-.2-.1-.3 0-.1-.1-.2-.1-.3 0-.1-.1-.2-.1-.3 0-.1-.1-.2-.1-.3 0-.1-.1-.2-.1-.3 0-.1-.1-.2-.1-.3 0-.1-.1-.2-.1-.3 0-.1-.1-.2-.1-.3 0-.1-.1-.2-.1-.3 0-.1-.1-.2-.1-.3 0-.1-.1-.2-.1-.3 0-.1-.1-.2-.1-.3 0-.1-.1-.2-.1-.3 0-.1-.1-.2-.1-.3 0-.1-.1-.2-.1-.3 0-.1-.1-.2-.1-.3 0-.1-.1-.2-.1-.3 0-.1-.1-.2-.1-.3 0-.1-.1-.2-.1-.3 0-.1-.1-.2-.1-.3 0-.1-.1-.2-.1-.3 0-.1-.1-.2-.1-.3 0-.1-.1-.2-.1-.3 0-.1-.1-.2-.1-.3 0-.1-.1-.2-.1-.3 0-.1-.1-.2-.1-.3 0-.1-.1-.2-.1-.3 0-.1-.1-.2-.1-.3 0-.1-.1-.2-.1-.3 0-.1-.1-.2-.1-.3 0-.1-.1-.2-.1-.3 0-.1-.1-.2-.1-.3 0-.1-.1-.2-.1-.3 0-.1-.1-.2-.1-.3 0-.1-.1-.2-.1-.3 0-.1-.1-.2-.1-.3 0-.1-.1-.2-.1-.3 0-.1-.1-.2-.1-.3 0-.1-.1-.2-.1-.3 0-.1-.1-.2-.1-.3 0-.1-.1-.2-.1-.3 0-.1-.1-.2-.1-.3 0-.1-.1-.2-.1-.3 0-.1-.1-.2-.1-.3 0-.1-.1-.2-.1-.3 0-.1-.1-.2-.1-.3 0-.1-.1-.2-.1-.3 0-.1-.1-.2-.1-.3 0-.1-.1-.2-.1-.3 0-.1-.1-.2-.1-.3 0-.1-.1-.2-.1-.3 0-.1-.1-.2-.1-.3 0-.1-.1-.2-.1-.3 0-.1-.1-.2-.1-.3 0-.1-.1-.2-.1-.3 0-.1-.1-.2-.1-.3 0-.1-.1-.2-.1-.3 0-.1-.1-.2-.1-.3 0-.1-.1-.2-.1-.3 0-.1-.1-.2-.1-.3 0-.1-.1-.2-.1-.3 0-.1-.1-.2-.1-.3 0-.1-.1-.2-.1-.3 0-.1-.1-.2-.1-.3 0-.1-.1-.2-.1-.3 0-.1-.1-.2-.1-.3 0-.1-.1-.2-.1-.3 0-.1-.1-.2-.1-.3l-.3-.6c-.2-.2-.6-.4-.9-.4h-1.1c-3.8.4-9.4 2.7-13 6-.2-.1-.5-.3-.7-.4l-.1-.1c-.1 0-.1-.1-.2-.1s-.2-.1-.3-.1c-.6-.2-1.2-.3-1.8-.3H49.8c-1.1.1-2 .5-2.9.9-.8-.7-1.6-1.4-2.6-2-3.8-2.6-8.3-4.1-11.6-4.1h-.4c-.2.1-.4.2-.5.3-2.7-.6-2.8-.3-2.8.1.1 3 1.5 6.6 2.7 9.8.4 1.1.8 2.1 1.1 3.1V51.4c0 .2 0 .3.1.5v.2c0 .2.1.4.1.6v.1c.1.2.1.4.2.6 0 .1.1.2.1.2 0 .1.1.3.2.4 0 0 0 .1.1.1 0 .1 0 .1.1.2 0 0 0 .1.1.1 0 .1 0 .1.1.2 0 0 0 .1.1.1 0 .1 0 .1.1.2 0 0 0 .1.1.1 0 .1 0 .1.1.2 0 0 0 .1.1.1 0 .1 0 .1.1.2 0 0 0 .1.1.1 0 .1 0 .1.1.2 0 0 0 .1.1.1 0 .1 0 .1.1.2 0 0 0 .1.1.1 0 .1 0 .1.1.2 0 0 0 .1.1.1 0 .1 0 .1.1.2 0 0 0 .1.1.1 0 .1 0 .1.1.2 0 0 0 .1.1.1 0 .1 0 .1.1.2 0 .1 0 .1.1.2 0 .1 0 .1.1.2 0 0 0 .1.1.1 0 .1 0 .1.1.2 0 0 0 .1.1.1 0 .1 0 .1.1.2 0 0 0 .1.1.1 0 .1 0 .1.1.2 0 0 0 .1.1.1 0 .1 0 .1.1.2 0 0 0 .1.1.1 0 .1 0 .1.1.2 0 0 0 .1.1.1 0 .1 0 .1.1.2 0 0 0 .1.1.1 0 .1 0 .1.1.2 0 0 0 .1.1.1 0 .1 0 .1.1.2 0 0 0 .1.1.1 0 .1 0 .1.1.2 0 0 0 .1.1.1 0 .1 0 .1.1.2 0 0 0 .1.1.1 0 .1 0 .1.1.2 0 0 0 .1.1.1 0 .1 0 .1.1.2 0 0 0 .1.1.1 0 .1 0 .1.1.2 0 0 0 .1.1.1 0 .1 0 .1.1.2 0 0 0 .1.1.1 0 .1 0 .1.1.2 0 0 0 .1.1.1 0 .1 0 .1.1.2 0 0 0 .1.1.1 0 .1 0 .1.1.2 0 0 0 .1.1.1 0 .1 0 .1.1.2 0 0 0 .1.1.1 0 .1 0 .1.1.2 0 0 0 .1.1.1 0 .1 0 .1.1.2 0 0 0 .1.1.1 0 .1 0 .1.1.2 0 0 0 .1.1.1 0 .1 0 .1.1.2 0 0 0 .1.1.1 0 .1 0 .1.1.2 0 0 0 .1.1.1 0 .1 0 .1.1.2 0 .1 0 .1.1.2 0 .1 0 .1.1.2 0 .1 0 .1.1.1 0 .1 0 .1.1.2 0 0 0 .1.1.1 0 .1 0 .1.1.2 0 0 0 .1.1.1 0 .1 0 .1.1.2 0 0 0 .1.1.1 0 .1 0 .1.1.2 0 0 0 .1.1.1 0 .1 0 .1.1.2 0 0 0 .1.1.1 0 .1 0 .1.1.2 0 0 0 .1.1.1 0 .1 0 .1.1.2 0 0 0 .1.1.1 0 .1 0 .1.1.2 0 0 0 .1.1.1 0 .1 0 .1.1.2 0 0 0 .1.1.1 0 .1 0 .1.1.2 0 0 0 .1.1.1 0 .1 0 .1.1.2 0 0 0 .1.1.1 0 .1 0 .1.1.2 0 0 0 .1.1.1 0 .1 0 .1.1.2 0 0 0 .1.1.1 0 .1 0 .1.1.2 0 0 0 .1.1.1 0 .1 0 .1.1.2 0 0 0 .1.1.1 0 .1 0 .1.1.2 0 0 0 .1.1.1 0 .1 0 .1.1.2 0 0 0 .1.1.1 0 .1 0 .1.1.2 0 0 0 .1.1.1 0 .1 0 .1.1.2 0 0 0 .1.1.1 0 .1 0 .1.1.2 0 0 0 .1.1.1 0 .1 0 .1.1.2 0 0 0 .1.1.1 0 .1 0 .1.1.2 0 0 0 .1.1.1 0 .1 0 .1.1.2 0 0 0 .1.1.1 0 .1 0 .1.1.2 0 .1 0 .1.1.2 0 .1 0 .1.1.2 0 0 0 .1.1.1 0 .1 0 .1.1.2 0 0 0 .1.1.1 0 .1 0 .1.1.2 0 0 0 .1.1.1 0 .1 0 .1.1.2 0 0 0 .1.1.1 0 .1 0 .1.1.2 0 0 0 .1.1.1 0 .1 0 .1.1.2 0 0 0 .1.1.1 0 .1 0 .1.1.2 0 0 0 .1.1.1 0 .1 0 .1.1.2 0 0 0 .1.1.1 0 .1 0 .1.1.2 0 0 0 .1.1.1 0 .1 0 .1.1.2 0 0 0 .1.1.1 0 .1 0 .1.1.2 0 0 0 .1.1.1 0 .1 0 .1.1.2 0 0 0 .1.1.1 0 .1 0 .1.1.2 0 0 0 .1.1.1 0 .1 0 .1.1.2 0 0 0 .1.1.1 0 .1 0 .1.1.2 0 0 0 .1.1.1 0 .1 0 .1.1.2 0 0 0 .1.1.1 0 .1 0 .1.1.2 0 0 0 .1.1.1 0 .1 0 .1.1.2 0 0 0 .1.1.1 0 .1 0 .1.1.2 0 0 0 .1.1.1 0 .1 0 .1.1.2 0 0 0 .1.1.1 0 .1 0 .1.1.2 0 0 0 .1.1.1 0 .1 0 .1.1.2 0 0 0 .1.1.1v.1c1.3.2 2.6.2 3.9.2 8.3.9 20.5-8.5 24.8-21.5z"/><path id="XMLID_5_" d="M64.5 50.6c-.7-1.8-1.3-4.3-1.3-8.7H32.8c0 4.4-.6 6.9-1.3 8.7-.7 1.8 1.4 3.4 2.9 4.5 5.8 4.5 6.3 9.2 13.6 9.2s7.8-4.7 13.6-9.2c1.5-1.2 3.6-2.7 2.9-4.5z" fill="#b38867"/><path id="XMLID_6_" d="M64.5 50.6c-.7-1.8-1.3-4.3-1.3-8.7h-1.5c0 4.4.6 6.9 1.3 8.7.7 1.8-1.4 3.4-2.9 4.5-5.6 4.3-6.3 8.8-12.8 9.1h.8c7.3 0 7.8-4.7 13.6-9.2 1.4-1.1 3.5-2.6 2.8-4.4z" fill="#cdcdc0"/><circle id="XMLID_7_" class="st4" cx="53.5" cy="48.1" r="2.5"/><circle id="XMLID_8_" class="st5" cx="53.5" cy="48.1" r="1.5"/><circle id="XMLID_9_" class="st4" cx="42.3" cy="48.1" r="2.5"/><circle id="XMLID_10_" class="st5" cx="42.3" cy="48.1" r="1.5"/><path id="XMLID_11_" d="M66.7 28.1c-.2-.2-.6-.4-.9-.4-3.8 0-10.1 2.4-14.1 6.1-1-.6-2.3-1-3.6-1s-2.6.4-3.6 1c-4-3.6-10.4-6.1-14.1-6.1-.3 0-.7.1-.9.4-.4.2-.5.5-.5.9.1 3 1.5 6.6 2.7 9.8.4 1.1.8 3.6 1.1 4.6 13.5-.3 12.7 12.1 12.7 16h5.1c0-4-.8-16.3 12.7-16v-1.5c.3-1 .7-2 1.1-3.1C65.6 35.6 67 32 67 29c0-.4-.1-.7-.3-.9z" fill="#b38867"/><path id="XMLID_12_" class="st7" d="M51.1 34.2c.2-.2.4-.3.6-.5-1-.6-2.4-1-3.7-1h-.8c1.1.2 3.1 1 3.9 1.5z"/><path id="XMLID_13_" class="st7" d="M66.7 28.1c-.2-.2-.6-.4-.9-.4-.4 0-.7 0-1.1.1.2.1.4.2.5.3.2.2.4.6.4.9-.1 3-1.4 6.6-2.7 9.8-.4 1.1-.8 2.1-1.1 3.1v1.5c-13.5-.3-12.8 12-12.8 16h1.5c0-4-.8-16.3 12.7-16v-1.5c.3-1 .7-2 1.1-3.1C65.6 35.6 67 32 67 29c0-.4-.1-.7-.3-.9z"/><path id="XMLID_14_" class="st7" d="M43.3 34.2c.3-.2.7-.3 1-.5-4.1-3.7-10.4-6.1-14.1-6.1-.1 0-.3 0-.4.1 3.9.5 9.9 3.2 13.5 6.5z"/><path id="XMLID_15_" class="st5" d="M48 63.2c-1.3-1.3-2.5-2.4-2.5-3.8s1.1-2.5 2.5-2.5 2.5 1.1 2.5 2.5-1.2 2.6-2.5 3.8z"/><path id="XMLID_16_" class="st8" d="M64.5 30.2c-1.3 0-7.6 1.3-8.9 3.8 1.3 1.3 6.3 5.1 6.3 5.1 1.3-2.5 2.6-7.6 2.6-8.9z"/><path id="XMLID_17_" class="st8" d="M31.5 30.2c1.3 0 7.6 1.3 8.9 3.8-1.3 1.3-6.3 5.1-6.3 5.1-1.3-2.5-2.6-7.6-2.6-8.9z"/></g></svg>